<?xml version="1.0" encoding="utf-8"?>
<!-- Generator: Adobe Illustrator 26.2.1, SVG Export Plug-In . SVG Version: 6.00 Build 0)  -->
<svg version="1.1" id="Layer_1" xmlns="http://www.w3.org/2000/svg" xmlns:xlink="http://www.w3.org/1999/xlink" x="0px" y="0px"
	 viewBox="0 0 700 700" style="enable-background:new 0 0 700 700;" xml:space="preserve">
<style type="text/css">
	.st0{fill:#878787;}
	.st1{fill:#FFFFFF;}
</style>
<rect class="st0" width="700" height="700"/>
<path class="st1" d="M430,222c0-44.2-35.8-80-80-80s-80,35.8-80,80s35.8,80,80,80S430,266.2,430,222z M222,222
	c0-70.7,57.3-128,128-128s128,57.3,128,128s-57.3,128-128,128S222,292.7,222,222z M175.3,558h349.4c-8.9-63.3-63.3-112-129-112
	h-91.4C238.6,446,184.2,494.7,175.3,558z M126,576.3c0-98.5,79.8-178.3,178.3-178.3h91.4c98.5,0,178.3,79.8,178.3,178.3
	c0,16.4-13.3,29.7-29.7,29.7H155.7C139.3,606,126,592.7,126,576.3z"/>
</svg>
